<svg id="visual" viewBox="0 0 900 600" xmlns="http://www.w3.org/2000/svg" xmlns:xlink="http://www.w3.org/1999/xlink" version="1.1" transform="scale(1,-1)"><rect x="0" y="0" width="900" height="600" fill="#4831D4"></rect><path d="M99 0L92.7 14.3C86.3 28.7 73.7 57.3 73.2 85.8C72.7 114.3 84.3 142.7 90.5 171.2C96.7 199.7 97.3 228.3 98.2 257C99 285.7 100 314.3 92.7 343C85.3 371.7 69.7 400.3 67.3 428.8C65 457.3 76 485.7 83.7 514.2C91.3 542.7 95.7 571.3 97.8 585.7L100 600L0 600L0 585.7C0 571.3 0 542.7 0 514.2C0 485.7 0 457.3 0 428.8C0 400.3 0 371.7 0 343C0 314.3 0 285.7 0 257C0 228.3 0 199.7 0 171.2C0 142.7 0 114.3 0 85.8C0 57.3 0 28.7 0 14.3L0 0Z" fill="#D3F296" stroke-linecap="round" stroke-linejoin="miter"></path></svg>