<svg id="visual" viewBox="0 0 900 450" width="900" height="450" xmlns="http://www.w3.org/2000/svg" xmlns:xlink="http://www.w3.org/1999/xlink" version="1.1"><path d="M0 33L13.7 43.5C27.3 54 54.7 75 82 76.5C109.3 78 136.7 60 163.8 59.2C191 58.3 218 74.7 245.2 74.7C272.3 74.7 299.7 58.3 327 59.2C354.3 60 381.7 78 409 77.2C436.3 76.3 463.7 56.7 491 53.7C518.3 50.7 545.7 64.3 573 71.8C600.3 79.3 627.7 80.7 654.8 78.3C682 76 709 70 736.2 72.3C763.3 74.7 790.7 85.3 818 88.3C845.3 91.3 872.7 86.7 886.3 84.3L900 82L900 0L886.3 0C872.7 0 845.3 0 818 0C790.7 0 763.3 0 736.2 0C709 0 682 0 654.8 0C627.7 0 600.3 0 573 0C545.7 0 518.3 0 491 0C463.7 0 436.3 0 409 0C381.7 0 354.3 0 327 0C299.7 0 272.3 0 245.2 0C218 0 191 0 163.8 0C136.7 0 109.3 0 82 0C54.7 0 27.3 0 13.7 0L0 0Z" fill="#6198ff"></path><path d="M0 64L13.7 74.5C27.3 85 54.7 106 82 107.5C109.3 109 136.7 91 163.8 94.8C191 98.7 218 124.3 245.2 124.3C272.3 124.3 299.7 98.7 327 98.7C354.3 98.7 381.7 124.3 409 129.7C436.3 135 463.7 120 491 115.5C518.3 111 545.7 117 573 120C600.3 123 627.7 123 654.8 122.2C682 121.3 709 119.7 736.2 123.3C763.3 127 790.7 136 818 140.5C845.3 145 872.7 145 886.3 145L900 145L900 80L886.3 82.3C872.7 84.7 845.3 89.3 818 86.3C790.7 83.3 763.3 72.7 736.2 70.3C709 68 682 74 654.8 76.3C627.7 78.7 600.3 77.3 573 69.8C545.7 62.3 518.3 48.7 491 51.7C463.7 54.7 436.3 74.3 409 75.2C381.7 76 354.3 58 327 57.2C299.7 56.3 272.3 72.7 245.2 72.7C218 72.7 191 56.3 163.8 57.2C136.7 58 109.3 76 82 74.5C54.7 73 27.3 52 13.7 41.5L0 31Z" fill="#3c80ff"></path><path d="M0 285L13.7 279C27.3 273 54.7 261 82 255C109.3 249 136.7 249 163.8 258C191 267 218 285 245.2 276.7C272.3 268.3 299.7 233.7 327 228.3C354.3 223 381.7 247 409 250.8C436.3 254.7 463.7 238.3 491 235.3C518.3 232.3 545.7 242.7 573 248.7C600.3 254.7 627.7 256.3 654.8 263.2C682 270 709 282 736.2 276.7C763.3 271.3 790.7 248.7 818 247.2C845.3 245.7 872.7 265.3 886.3 275.2L900 285L900 143L886.3 143C872.7 143 845.3 143 818 138.5C790.7 134 763.3 125 736.2 121.3C709 117.7 682 119.3 654.8 120.2C627.7 121 600.3 121 573 118C545.7 115 518.3 109 491 113.5C463.7 118 436.3 133 409 127.7C381.7 122.3 354.3 96.7 327 96.7C299.7 96.7 272.3 122.3 245.2 122.3C218 122.3 191 96.7 163.8 92.8C136.7 89 109.3 107 82 105.5C54.7 104 27.3 83 13.7 72.5L0 62Z" fill="#0066ff"></path><path d="M0 357L13.7 352.5C27.3 348 54.7 339 82 330C109.3 321 136.7 312 163.8 315.7C191 319.3 218 335.7 245.2 340.2C272.3 344.7 299.7 337.3 327 334.3C354.3 331.3 381.7 332.7 409 327.3C436.3 322 463.7 310 491 314.5C518.3 319 545.7 340 573 349.8C600.3 359.7 627.7 358.3 654.8 355.3C682 352.3 709 347.7 736.2 343.8C763.3 340 790.7 337 818 345.3C845.3 353.7 872.7 373.3 886.3 383.2L900 393L900 283L886.3 273.2C872.7 263.3 845.3 243.7 818 245.2C790.7 246.7 763.3 269.3 736.2 274.7C709 280 682 268 654.8 261.2C627.7 254.3 600.3 252.7 573 246.7C545.7 240.7 518.3 230.3 491 233.3C463.7 236.3 436.3 252.7 409 248.8C381.7 245 354.3 221 327 226.3C299.7 231.7 272.3 266.3 245.2 274.7C218 283 191 265 163.8 256C136.7 247 109.3 247 82 253C54.7 259 27.3 271 13.7 277L0 283Z" fill="#0059dd"></path><path d="M0 451L13.7 451C27.3 451 54.7 451 82 451C109.3 451 136.7 451 163.8 451C191 451 218 451 245.2 451C272.3 451 299.7 451 327 451C354.3 451 381.7 451 409 451C436.3 451 463.7 451 491 451C518.3 451 545.7 451 573 451C600.3 451 627.7 451 654.8 451C682 451 709 451 736.2 451C763.3 451 790.7 451 818 451C845.3 451 872.7 451 886.3 451L900 451L900 391L886.3 381.2C872.7 371.3 845.3 351.7 818 343.3C790.7 335 763.3 338 736.2 341.8C709 345.7 682 350.3 654.8 353.3C627.7 356.3 600.3 357.7 573 347.8C545.7 338 518.3 317 491 312.5C463.7 308 436.3 320 409 325.3C381.7 330.7 354.3 329.3 327 332.3C299.7 335.3 272.3 342.7 245.2 338.2C218 333.7 191 317.3 163.8 313.7C136.7 310 109.3 319 82 328C54.7 337 27.3 346 13.7 350.5L0 355Z" fill="#004cbb"></path></svg>