<svg id="visual" viewBox="0 0 540 960" width="540" height="960" xmlns="http://www.w3.org/2000/svg" xmlns:xlink="http://www.w3.org/1999/xlink" version="1.1"><rect x="0" y="0" width="540" height="960" fill="#4634ba"></rect><path d="M0 858L22.5 849C45 840 90 822 135 813.3C180 804.7 225 805.3 270 817.8C315 830.3 360 854.7 405 856.7C450 858.7 495 838.3 517.5 828.2L540 818L540 961L517.5 961C495 961 450 961 405 961C360 961 315 961 270 961C225 961 180 961 135 961C90 961 45 961 22.5 961L0 961Z" fill="#D3F296" stroke-linecap="round" stroke-linejoin="miter"></path></svg>