<svg xmlns="http://www.w3.org/2000/svg" viewBox="0 0 309.11 203.51"><defs><style>.cls-1{fill:#cce081;}</style></defs><g id="Layer_2" data-name="Layer 2"><g id="additional_parts"><path class="cls-1" d="M288.3,107.39c-1.11,10.17-4,17.44-7.33,25.83a163.38,163.38,0,0,1-13.45,26A245.51,245.51,0,0,1,248.41,186c-5,6.29-9.49,11.37-12.77,15l-2.37.31c.81-1.32,2-3.29,3.52-5.66,5.34-8.42,8.09-12.06,10.55-15.89,4.11-6.44,6.24-11.64,9.17-18.81,4.07-10,6.56-16,7.64-24.76.77-6.15,1.71-13.72-1.37-22.78a44,44,0,0,0-10.7-16.81A44.47,44.47,0,0,0,234.65,86l-13-2.6c-.21-1.53-.41-3.06-.62-4.59q.17-14.13.31-28.28a79.52,79.52,0,0,1,23.85.16c7.92,1.26,16.27,2.55,24.76,8.71a46.73,46.73,0,0,1,17,23.85C289.92,92.69,289.06,100.48,288.3,107.39Z"/><path class="cls-1" d="M234.65,86a307.11,307.11,0,0,1-65.28,43.57s-23.94,11.84-59,21.7A131.73,131.73,0,0,1,84.69,156a97.49,97.49,0,0,1-19.11-.15,90.51,90.51,0,0,1-14.06-2.75l6.14-5.53c4.12-3.41,8.54-6.87,13.27-10.33,7.39-5.42,14.58-10.14,21.4-14.26a69.5,69.5,0,0,0,7.64.92,65.69,65.69,0,0,0,18.9-1.57c4.06-.85,8.68-2,14.28-3.63l3.32-1h0l.14-.05c8.57-2.43,15.64-4.52,25-8,2.64-1,7-2.68,12.6-5.1h0c2.55-1.1,5.35-2.36,8.36-3.78s6.42-3.07,9.9-4.86c5.35-2.76,9.81-5.26,13.14-7.19q7.72-5,15.44-9.94c.21,1.53.41,3.06.62,4.59Z"/><path class="cls-1" d="M174.2,104.57h0l-37.56,13.13-.15,0L118.62,101q.13,10.68.25,21.36A65.69,65.69,0,0,1,100,123.9a69.5,69.5,0,0,1-7.64-.92c-6.82,4.12-14,8.84-21.4,14.26-4.73,3.46-9.15,6.92-13.27,10.33l-6.14,5.53L37.76,164.71A231.25,231.25,0,0,0,8.1,196.66q-2.62,3.45-5,6.85H0c1.19-1.83,2.92-4.46,5-7.61A401.57,401.57,0,0,1,29.2,163a326.06,326.06,0,0,1,31.18-32.4c8.73-7.94,17.27-14.89,25.38-20.95q.3-45.32.61-90.65Q130.28,61.81,174.2,104.57Z"/><path class="cls-1" d="M215.23,82l-32.67,18.78q-.31-7.86-.65-15.72L170.6,87.82q-9.18-9.31-18.35-18.65l29.66-11.31q.15-20.32.31-40.66h31.49Q214.48,49.6,215.23,82Z"/><path class="cls-1" d="M119.08,156.31q-.45,19.33-.92,38.67l-32.1.16q.15-16.37.31-32.72l16.2-2Z"/><path class="cls-1" d="M214.32,110.45q-.39,41.65-.77,83.31l-52.39-53.31,9.51-4.82,42.86-26.27C213.79,109.72,214.05,110.09,214.32,110.45Z"/><path class="cls-1" d="M71.61,9.58c-.5.65-2.5,4-6.49,10.68-2.74,4.58-5.26,8.81-7.64,13.14a135,135,0,0,0-8.56,17.43C46.2,57.94,41.84,69.74,44,84.15A44.59,44.59,0,0,0,64.2,116L36.38,143.77c-.75-.91-1.51-1.81-2.27-2.72A61.88,61.88,0,0,1,20.89,89.11c.07-.34.14-.67.2-1,1.82-8.2,4.89-14.33,11-26.6A213.33,213.33,0,0,1,50.75,31c4.32-5.88,9-11.57,10.7-13.61C65.2,12.82,68.52,9,71.08,6.19c1.31-.66,2.87-1.34,3.21-.91S73,7.84,71.61,9.58Z"/><path class="cls-1" d="M309.11,0c-1.58,2.67-3.89,6.51-6.74,11.08-5.52,8.85-8.77,14.27-12.84,19.57a160.85,160.85,0,0,1-17.12,19l-4.59-5.51c.74-.83,1.9-2.13,3.34-3.68,5.06-5.44,7.41-7.31,12-12,4-4.05,6.91-7.34,9.17-9.91,3.5-4,6.35-7.49,8.49-10.21Z"/></g></g></svg>