<svg xmlns="http://www.w3.org/2000/svg" viewBox="0 0 325 378.01"><defs><style>.cls-1{fill:#f6dfc9;}.cls-2{fill:#1b374f;}.cls-3{fill:#e3ceba;}.cls-4{fill:#fff;}.cls-5{fill:#efc49f;}.cls-6{fill:#e3c0a3;}.cls-7{fill:#9ba0a0;stroke:#858a8a;stroke-miterlimit:10;stroke-width:5px;}</style></defs><g id="Layer_2" data-name="Layer 2"><g id="inner_t_shirt"><path class="cls-1" d="M233.2,113a6.38,6.38,0,0,0-1.26-2,6.62,6.62,0,0,1,.9,1.61,7.7,7.7,0,0,1,0,5l-.39,2.46q-.34.93-.69,1.83c-2.91,4.71-2.4,5.77-8.18,15.71-1.28,2.2-2.35,3.95-3,5l.68-13.7c-1.46,3.3-2.53,4.88-3.23,4.72a.73.73,0,0,1-.46-.48c-.37-.17-.61-.88-.75-2.11l.27-.54A24.91,24.91,0,0,1,217,124c-1.59-1.53,1.4-8.46,3.06-13.05.22-.58.41-1.12.58-1.61l.4-1.14,1-1.2.11,0c2.17-9.19-.42-23.67-20.25-47-2.48-.65-5.49-1.33-9-1.89l-1.51-.23c-1-.15-2.08-.29-3.18-.41l-1.66-.17L185,57.17c-.54-.05-1.09-.08-1.64-.11l-.67,0L181.27,57c-1.32-.05-2.66-.08-4-.07l-1.44,0c-.52,0-1,0-1.57,0-1.22,0-2.46.1-3.72.2q-3.66.27-7.56.87a96.58,96.58,0,0,0-44,19,122.85,122.85,0,0,0-10.67,31c-.26,1.25-.49,2.52-.7,3.81s-.44,2.77-.63,4.19a119.46,119.46,0,0,0-1,16c-.64,1.3-1.31,2-2,2h-.08q-3.85.17-8.81-26h0l6.76,35.75v0c0,.08.11.15.17.23a30.74,30.74,0,0,0,4.84,4.29,1.21,1.21,0,0,0,.2.14l.43.27.53.3a21.22,21.22,0,0,0,5,2l.38,1a54.52,54.52,0,0,0,4.62,9c1.13,1.76,7.71,11.82,19,18,.48.26,1,.52,1.45.76,15,7.5,33.87,6.31,48.55-1.76l.7-.4A55.69,55.69,0,0,0,210.5,152c.17-.36.31-.7.44-1a31.66,31.66,0,0,0,4.31-2.68l0,0c.54-.4,1.09-.83,1.65-1.3a32.7,32.7,0,0,0,4-4c.65-1,1.72-2.8,3-5,5.78-9.94,5.27-11,8.18-15.71q.34-.9.69-1.83l.39-2.46A7.7,7.7,0,0,0,233.2,113Zm-98.7,16.25c-2.21,0-4-3.58-4-8s1.79-8,4-8,4,3.58,4,8S136.71,129.26,134.5,129.26Zm57,0c-2.21,0-4-3.58-4-8s1.79-8,4-8,4,3.58,4,8S193.71,129.26,191.5,129.26Z"/><path class="cls-1" d="M95,108l6.76,35.75A113.91,113.91,0,0,1,91.94,127c-2.86-7.42-4.3-11.21-3-14s4.06-4.25,6-5Z"/><path class="cls-1" d="M103.86,134q-3.85.17-8.81-26h.08Q100,133.9,103.86,134Z"/><ellipse class="cls-1" cx="134.5" cy="121.26" rx="4" ry="8"/><path class="cls-1" d="M191.4,57.89c-1-.15-2.08-.29-3.18-.41C189.32,57.6,190.38,57.73,191.4,57.89Z"/><ellipse class="cls-1" cx="191.5" cy="121.26" rx="4" ry="8"/><path class="cls-1" d="M232.84,117.58l-.39,2.46q-.34.93-.69,1.83c-2.91,4.71-2.4,5.77-8.18,15.71-1.28,2.2-2.35,3.95-3,5l.68-13.7c-1.46,3.3-2.53,4.88-3.23,4.72a.73.73,0,0,1-.46-.48c-.37-.17-.61-.88-.75-2.11l.27-.54A24.91,24.91,0,0,1,217,124c-1.59-1.53,1.4-8.46,3.06-13.05.22-.58.41-1.12.58-1.61l.4-1.14,1-1.2.11,0c2.17-9.19-.42-23.67-20.25-47-2.48-.65-5.49-1.33-9-1.89,3.49.55,6.53,1.24,9,1.89,19.55,23,22.34,37.43,20.34,46.64-.1.47-.21.92-.34,1.36s-.25.84-.41,1.34c-1.46,4.62-4.66,13.46-2.59,14.66a1.55,1.55,0,0,0,1.37-.05,6,6,0,0,0,1.23-.67l.4-.28q2.4-5.34,4.81-10.68v0c.56-1.26,1.13-2.52,1.7-3.78h0a10.5,10.5,0,0,1,3.43,2.38l0,0a6.62,6.62,0,0,1,.9,1.61A7.7,7.7,0,0,1,232.84,117.58Z"/><path class="cls-2" d="M239.86,57c-.13.18.78,1.07,4,4,3.06,2.79,3.45,3.09,4,4,1.43,2.35,1.9,5.43,1,6-.2.13-.47.09-1,0a7.26,7.26,0,0,1-2.7-1.07,31.92,31.92,0,0,0-3.3-1.93,11.83,11.83,0,0,1,4,4,8.74,8.74,0,0,1,1,4c0,3.6-2.33,5.34-6,11-2.09,3.22-1.42,2.81-4,7-2,3.24-4.63,5.43-7,10a14.58,14.58,0,0,0-.83,1.81,2.36,2.36,0,0,0-.17,1.19,1.59,1.59,0,0,0,.06.3,2.08,2.08,0,0,0-.21.7l-.14.32-.1.21-.12.26,0,0q-4.42,14-7.11,20.05h0c-1.46,3.3-2.53,4.88-3.23,4.72a.73.73,0,0,1-.46-.48,5.46,5.46,0,0,1-.39-1.68l-.09-1A24.91,24.91,0,0,1,217,124c-1.59-1.53,1.4-8.46,3.06-13.05.22-.58.41-1.12.58-1.61l.4-1.14,1-1.2.11,0c2.17-9.19-.42-23.67-20.25-47-2.48-.65-5.49-1.33-9-1.89l-1.51-.23c-1-.15-2.08-.29-3.18-.41l-1.66-.17L185,57.17c-.54-.05-1.09-.08-1.64-.11l-.67,0L181.27,57c-1.32-.05-2.66-.08-4-.07l-1.44,0c-.52,0-1,0-1.57,0-1.22,0-2.46.1-3.72.2-2.47.18-5,.46-7.64.87a96.58,96.58,0,0,0-44,19c-1.63,3.26-3.29,6.93-4.85,11-.35.87-.68,1.77-1,2.68A121.36,121.36,0,0,0,108.19,108H108v1c-.19.93-.35,1.88-.51,2.84-.24,1.37-.44,2.77-.63,4.19a119.46,119.46,0,0,0-1,16c-.64,1.3-1.31,2-2,2q-3.85.17-8.81-26h-.19q-.45-1.08-.93-2.07A33.24,33.24,0,0,0,85.86,95c-3.44-3-6.21-4.05-7.6-7a8.33,8.33,0,0,1-.4-1c-1.32-4.09.49-8.33-1-9-1-.46-2.33,1.37-3,1-1.06-.59.37-6.18,4-14a122,122,0,0,1,16-25,105.11,105.11,0,0,1,11-12,136.91,136.91,0,0,1,11-9c1.71-1.29,3.94-3,7-5a95.73,95.73,0,0,1,10-6,81.24,81.24,0,0,1,16-6c5.22-1.37,7.95-2.09,12-2a23.93,23.93,0,0,1,12,3,21.12,21.12,0,0,1,4,3,28.46,28.46,0,0,1,4-1,31.18,31.18,0,0,1,10,0c2.36.38,8.75,1.8,18,9,2.85,2.22,6.56,5.44,17,18,5.14,6.18,7.07,10.28,12,15,4.22,4,7.75,7.41,11,8,.37.07,1.86.3,2,1s-1.18,1.6-2,2a8.37,8.37,0,0,1-5.81.25C241.07,57.72,240,56.82,239.86,57Z"/><path class="cls-3" d="M101.81,144a113.81,113.81,0,0,1-10-17c-2.86-7.42-4.3-11.21-3-14s4.06-4.25,6-5H95l6.76,35.75v0Z"/><path class="cls-3" d="M232.84,117.58l-.39,2.46q-.34.93-.69,1.83c-2.91,4.71-2.4,5.77-8.18,15.71-1.28,2.2-2.35,3.95-3,5l.68-13.7h0l.07-1.44.2-4.14,0-.71c2-4.36,3.91-8.7,5.88-13.06l.64-1.42c.15.07.31.14.47.23a9.46,9.46,0,0,1,3.33,2.59l0,0a6.62,6.62,0,0,1,.9,1.61A7.7,7.7,0,0,1,232.84,117.58Z"/><path class="cls-2" d="M228,108.39c-.43,1.36-.85,2.67-1.26,3.92v0q-3.23,9.9-5.41,15.1c-1.68,4-2.91,5.91-3.67,5.74a.24.24,0,0,1-.1,0c-.37-.17-.61-.88-.75-2.11l.27-.54,3.22-6.51,7.15-14.44Z"/><path class="cls-2" d="M116.5,116a9,9,0,0,1,.79-5.39,11.35,11.35,0,0,1,3.67-4.34,17.25,17.25,0,0,1,5-2.44,22.67,22.67,0,0,1,5.34-1,18.91,18.91,0,0,1,10.64,2.48,20,20,0,0,1,7.45,7.39l-.76.66a37.52,37.52,0,0,0-8.33-4.65,21.1,21.1,0,0,0-8.72-1.42,22.92,22.92,0,0,0-8.65,2.1A10,10,0,0,0,117.5,116Z"/><path class="cls-2" d="M208.5,116a10,10,0,0,0-5.42-6.66,22.92,22.92,0,0,0-8.65-2.1,21.1,21.1,0,0,0-8.72,1.42,37.52,37.52,0,0,0-8.33,4.65l-.76-.66a20,20,0,0,1,7.45-7.39,18.91,18.91,0,0,1,10.64-2.48,22.67,22.67,0,0,1,5.34,1,17.25,17.25,0,0,1,5,2.44,11.35,11.35,0,0,1,3.67,4.34,9,9,0,0,1,.79,5.39Z"/><ellipse cx="134.5" cy="121.26" rx="4" ry="8"/><circle class="cls-4" cx="136" cy="116.26" r="1"/><ellipse cx="191.5" cy="121.26" rx="4" ry="8"/><circle class="cls-4" cx="193" cy="116.26" r="1"/><path class="cls-5" d="M155.38,145.69a21.36,21.36,0,0,0,3.46,3.17c1.23.93,2.62,1.78,4,1.66a3,3,0,0,0,1.82-.94,22.55,22.55,0,0,1,1.87-1.58,18.76,18.76,0,0,1,2.07-1.34c.72-.39,1.46-.74,2.19-1.11l.4.91c-1.27,1-2.6,1.79-3.71,2.81-.56.52-1.09,1-1.68,1.59a6.25,6.25,0,0,1-1.17.9,4.08,4.08,0,0,1-1.63.51,5.58,5.58,0,0,1-2.95-.64,9.43,9.43,0,0,1-2.17-1.52c-.64-.57-1.19-1.12-1.79-1.73a12.26,12.26,0,0,1-1.48-2Z"/><path class="cls-4" d="M144.67,158a81.63,81.63,0,0,0,32.8,5l.06,1a30,30,0,0,1-8.53,1.71,41.14,41.14,0,0,1-8.66-.35c-1.44-.19-2.85-.52-4.26-.83a39.72,39.72,0,0,1-4.13-1.33,27.19,27.19,0,0,1-7.62-4.23Z"/><path class="cls-6" d="M189.5,190.51h0a233.6,233.6,0,0,0-52.86,0c.27-1.11.54-2.43.86-4a50.61,50.61,0,0,0,.89-6.74c15,7.5,33.87,6.31,48.55-1.76l.7-.4C188.35,183.25,188.28,185.92,189.5,190.51Z"/><path class="cls-6" d="M200.5,210.51c-2,4.73-3.05,7.1-5,9-1,1-2.48,2.16-7,4a66.54,66.54,0,0,1-14,4,69.48,69.48,0,0,1-21,0l-5-1c-8.48-1.71-10-2.07-12-3a23.32,23.32,0,0,1-6-4,19.35,19.35,0,0,1-6-10c-.5-2.32-1.54-7.06,1-10s5.94-.91,9-4c1-1,1.55-2.52,2.14-5a233.6,233.6,0,0,1,52.86,0c1.1,4.1,2,5.27,3,6,1.47,1.11,2.4.6,5,2s4.28,2.3,5,4C202.77,203.15,203.12,204.42,200.5,210.51Z"/><path d="M277.71,234.51H48.29l.25-.5c6.37-12.84,21-24,40.9-32L84.5,230.51l155,1-6.41-30.86c21.66,8.07,37.64,19.79,44.37,33.36C277.55,234.18,277.63,234.34,277.71,234.51Z"/><polygon points="325 376.01 0 376.01 39 243.51 286 243.51 325 376.01"/><path class="cls-7" d="M278.5,375.51H35.5L26,247.14A12.23,12.23,0,0,1,38.17,234H277.64a12.22,12.22,0,0,1,12.18,13.3Z"/><path d="M239.5,231.51l-155-1L89.44,202a183.51,183.51,0,0,1,47.2-11.49c-.59,2.49-1.14,4-2.14,5-3.06,3.09-6.46,1.06-9,4s-1.5,7.68-1,10a19.35,19.35,0,0,0,6,10,23.32,23.32,0,0,0,6,4c2,.93,3.52,1.29,12,3l5,1a69.48,69.48,0,0,0,21,0,66.54,66.54,0,0,0,14-4c4.52-1.84,6-3,7-4,1.95-1.9,3-4.27,5-9,2.62-6.09,2.27-7.36,2-8-.72-1.7-2.42-2.61-5-4s-3.53-.89-5-2c-1-.72-1.9-1.89-3-6a186.68,186.68,0,0,1,43.59,10.13Z"/></g></g></svg>