<svg xmlns="http://www.w3.org/2000/svg" viewBox="0 0 1384.89 767.13"><defs><style>.cls-1{fill:#3b3bac;}.cls-10,.cls-2,.cls-7,.cls-8,.cls-9{fill:none;}.cls-3,.cls-4{fill:#d3f296;}.cls-10,.cls-3,.cls-6{stroke:#000;}.cls-10,.cls-3,.cls-6,.cls-7,.cls-8,.cls-9{stroke-miterlimit:10;}.cls-5,.cls-6{fill:#fff;}.cls-6{stroke-width:0.75px;}.cls-7{stroke:#d3f296;}.cls-7,.cls-8{stroke-width:3px;}.cls-8{stroke:#3b3bac;}.cls-9{stroke:#ff0;}.cls-10{stroke-width:1.11px;}</style></defs><g id="Layer_2" data-name="Layer 2"><g id="Layer_1-2" data-name="Layer 1"><path class="cls-1" d="M1097.5,0V623.19c-22-5.19-36.15-12.86-51.66-17.89C1029.5,600,1016.5,591,993.5,585c-58.46-15.25-59-49-241-33-119.34,10.49-237.25,72.57-343,71-130.19-1.93-266.23,45-322.28,100-5.6,5.5-66.85,46.74-74.72,44l0-220.65L12.62,0Z"/><path class="cls-2" d="M12.62,546.38Q6.35,544.25,0,541.5"/><path class="cls-3" d="M1102.27,624.65h0L1100,623.5Z"/><path class="cls-3" d="M1116.83,623.55c-.27,0-.54,0-.81,0v-.4Z"/><path class="cls-4" d="M1379.5,523.5V0h-282V623.19l.5.2,3.3,1.35.92-.09L1100,623.5l2.27,1.15h0c51.39,26.57,84.89,64.32,116.78,70.85,41.5,8.5,56.5.5,100.5,27.5,22.59,13.86,45.29,41.89,60.5,43.25V523.5ZM1116,625.14v-1.95l.81.36h0l2.73,1.19C1118.38,624.86,1117.2,625,1116,625.14Z"/><path class="cls-5" d="M1119.57,624.74c-1.19.12-2.37.26-3.55.4v-1.95l.81.36h0Z"/><path class="cls-6" d="M1102.27,624.65h0L1100,623.5Z"/><path class="cls-6" d="M1383,766.5l-3-.25V765Z"/><path class="cls-6" d="M1119.57,624.74c-1.19.12-2.37.26-3.55.4v-1.95l.81.36h0Z"/><path class="cls-6" d="M1102.27,624.65h0L1100,623.5Z"/><line class="cls-2" x1="817.5" y1="84" x2="868.5" y2="84"/><polyline class="cls-7" points="953.34 108.82 952.18 99.77 961.1 101.59 960.47 92.05 970.21 93.09 967.03 83.67 975.75 85.37 974.81 76.42 987.34 77.12 985.02 66.89 994.79 70.17 992.48 59.94 1005.25 62.67 1018.74 59.84"/><polyline class="cls-7" points="108.34 461.82 107.18 452.77 116.1 454.59 115.47 445.05 125.21 446.09 122.03 436.67 130.75 438.37 129.81 429.42 142.34 430.12 140.02 419.89 149.79 423.17 147.48 412.94 160.25 415.67 173.74 412.84"/><polyline class="cls-8" points="1139.13 359.39 1135.55 331.43 1163.11 337.04 1161.14 307.57 1191.26 310.79 1181.43 281.69 1208.36 286.96 1205.44 259.3 1244.14 261.47 1237.01 229.87 1267.17 239.99 1260.04 208.4 1299.46 216.84 1341.16 208.1"/><line class="cls-9" x1="806" y1="88.5" x2="819" y2="88.5"/><line class="cls-9" x1="822.5" y1="88.5" x2="835.5" y2="88.5"/><line class="cls-9" x1="839" y1="88.5" x2="852" y2="88.5"/><line class="cls-9" x1="855.5" y1="88.5" x2="868.5" y2="88.5"/><line class="cls-9" x1="806" y1="98.5" x2="819" y2="98.5"/><line class="cls-9" x1="822.5" y1="98.5" x2="835.5" y2="98.5"/><line class="cls-9" x1="839" y1="98.5" x2="852" y2="98.5"/><line class="cls-9" x1="855.5" y1="98.5" x2="868.5" y2="98.5"/><line class="cls-9" x1="806" y1="109.5" x2="819" y2="109.5"/><line class="cls-9" x1="822.5" y1="109.5" x2="835.5" y2="109.5"/><line class="cls-9" x1="839" y1="109.5" x2="852" y2="109.5"/><line class="cls-9" x1="855.5" y1="109.5" x2="868.5" y2="109.5"/><line class="cls-10" x1="1120" y1="426.5" x2="1134.46" y2="426.5"/><line class="cls-10" x1="1138.35" y1="426.5" x2="1152.8" y2="426.5"/><line class="cls-10" x1="1156.7" y1="426.5" x2="1171.15" y2="426.5"/><line class="cls-10" x1="1175.04" y1="426.5" x2="1189.5" y2="426.5"/><line class="cls-10" x1="1120" y1="437.62" x2="1134.46" y2="437.62"/><line class="cls-10" x1="1138.35" y1="437.62" x2="1152.8" y2="437.62"/><line class="cls-10" x1="1156.7" y1="437.62" x2="1171.15" y2="437.62"/><line class="cls-10" x1="1175.04" y1="437.62" x2="1189.5" y2="437.62"/><line class="cls-10" x1="1120" y1="449.85" x2="1134.46" y2="449.85"/><line class="cls-10" x1="1138.35" y1="449.85" x2="1152.8" y2="449.85"/><line class="cls-10" x1="1156.7" y1="449.85" x2="1171.15" y2="449.85"/><line class="cls-10" x1="1175.04" y1="449.85" x2="1189.5" y2="449.85"/></g></g></svg>