<svg id="visual" viewBox="0 0 900 600" width="900" height="600" xmlns="http://www.w3.org/2000/svg" xmlns:xlink="http://www.w3.org/1999/xlink" version="1.1"><rect x="0" y="0" width="900" height="600" fill="#4831D4"></rect><path d="M0 429L21.5 429.7C43 430.3 86 431.7 128.8 448.5C171.7 465.3 214.3 497.7 257.2 509.3C300 521 343 512 385.8 498.2C428.7 484.3 471.3 465.7 514.2 453.7C557 441.7 600 436.3 642.8 436.7C685.7 437 728.3 443 771.2 456.3C814 469.7 857 490.3 878.5 500.7L900 511L900 601L878.5 601C857 601 814 601 771.2 601C728.3 601 685.7 601 642.8 601C600 601 557 601 514.2 601C471.3 601 428.7 601 385.8 601C343 601 300 601 257.2 601C214.3 601 171.7 601 128.8 601C86 601 43 601 21.5 601L0 601Z" fill="#D3F296" stroke-linecap="round" stroke-linejoin="miter"></path></svg>